<svg width="14" height="14" viewBox="0 0 14 14" fill="none" xmlns="http://www.w3.org/2000/svg">
<g clip-path="url(#clip0_20794_287586)">
<path d="M0 6.9974H4.66667M4.66667 6.9974C4.66667 6.37856 4.9125 5.78506 5.35008 5.34748C5.78767 4.90989 6.38116 4.66406 7 4.66406C7.61884 4.66406 8.21233 4.90989 8.64992 5.34748C9.0875 5.78506 9.33333 6.37856 9.33333 6.9974M4.66667 6.9974C4.66667 7.61623 4.9125 8.20973 5.35008 8.64731C5.78767 9.0849 6.38116 9.33073 7 9.33073C7.61884 9.33073 8.21233 9.0849 8.64992 8.64731C9.0875 8.20973 9.33333 7.61623 9.33333 6.9974M9.33333 6.9974H14" stroke="#48BB78" stroke-width="1.75"/>
</g>
<defs>
<clipPath id="clip0_20794_287586">
<rect width="14" height="14" fill="white"/>
</clipPath>
</defs>
</svg>
