<svg width="24" height="24" viewBox="0 0 24 24" fill="none" xmlns="http://www.w3.org/2000/svg">
<path d="M6.1127 0.37397C5.6252 0.477095 5.15645 0.847408 4.93145 1.31147C4.82363 1.53647 4.80957 1.62553 4.80957 2.0146C4.80957 2.40366 4.82363 2.49272 4.93613 2.7271C5.10957 3.07866 5.39551 3.35522 5.76582 3.53335C6.02832 3.65522 6.12207 3.67397 6.44551 3.66928C7.12051 3.6646 7.65488 3.34585 7.9502 2.7646C8.11895 2.4271 8.16113 1.8646 8.04395 1.4896C7.89395 1.02085 7.49551 0.608345 7.03145 0.444283C6.78301 0.35522 6.35176 0.322408 6.1127 0.37397Z" fill="white"/>
<path d="M11.639 0.37438C10.7906 0.54313 10.1906 1.44782 10.3593 2.30563C10.6124 3.62751 12.1593 4.13844 13.1437 3.23376C13.8093 2.61969 13.8468 1.56501 13.2328 0.885318C12.839 0.454068 12.2343 0.257193 11.639 0.37438Z" fill="white"/>
<path d="M17.1185 0.401953C16.7716 0.491015 16.6123 0.584765 16.3638 0.837891C16.0544 1.14258 15.9279 1.43789 15.8998 1.89727C15.8763 2.33789 15.9279 2.5582 16.1341 2.90508C16.4341 3.40195 16.9498 3.67383 17.5826 3.67383C17.8779 3.67383 17.9857 3.65039 18.2388 3.52852C18.5998 3.35977 18.8951 3.06914 19.0685 2.71758C19.1763 2.49258 19.1904 2.40352 19.1904 2.01445C19.1904 1.62539 19.1763 1.53633 19.0638 1.31133C18.8388 0.837891 18.4029 0.491015 17.8966 0.373828C17.6248 0.312891 17.4138 0.317578 17.1185 0.401953Z" fill="white"/>
<path d="M4.92656 4.17188C4.52813 4.49062 4.19063 5.01094 4.08281 5.48906C4.05469 5.60156 4.03125 5.94375 4.03125 6.24375V6.79688H6.46875H8.90625V6.3375C8.90156 5.33906 8.57344 4.60781 7.90313 4.12031L7.725 3.98906L7.49531 4.10156C6.83438 4.43906 6.05625 4.43906 5.39531 4.10156L5.16094 3.98438L4.92656 4.17188Z" fill="white"/>
<path d="M10.4813 4.16719C9.83906 4.67344 9.5625 5.31562 9.5625 6.29062V6.79688H12H14.4375V6.29062C14.4375 5.75156 14.3578 5.31562 14.1984 5.00156C14.0438 4.69687 13.7625 4.35469 13.5141 4.1625L13.2844 3.98906L13.05 4.10625C12.3094 4.47187 11.4844 4.43437 10.7344 3.99844C10.7203 3.99375 10.6078 4.06875 10.4813 4.16719Z" fill="white"/>
<path d="M16.0969 4.12031C15.4266 4.60781 15.0984 5.33906 15.0938 6.3375V6.79688H17.5312H19.9688V6.24375C19.9688 5.94375 19.9453 5.60156 19.9172 5.48906C19.8094 5.01094 19.4719 4.49062 19.0734 4.17188L18.8391 3.98438L18.6047 4.10156C17.9438 4.43906 17.1656 4.43906 16.5047 4.10156L16.275 3.98906L16.0969 4.12031Z" fill="white"/>
<path d="M2.85938 8.34375V9.1875H12H21.1406V8.34375V7.5H12H2.85938V8.34375Z" fill="white"/>
<path d="M4.82812 9.86599C4.82812 9.88005 6.06094 11.2019 7.57031 12.8097L10.3125 15.7207V16.1379C10.3125 16.5176 10.3219 16.5551 10.3969 16.5316C11.2688 16.241 11.2453 16.2457 12 16.2457C12.7547 16.2457 12.7313 16.241 13.6078 16.5316C13.6781 16.5551 13.6875 16.5176 13.6875 16.1379V15.7207L16.4297 12.8097C17.9391 11.2019 19.1719 9.88005 19.1719 9.86599C19.1719 9.85193 15.9469 9.84255 12 9.84255C8.05781 9.84255 4.82812 9.85193 4.82812 9.86599Z" fill="white"/>
<path d="M11.4797 16.9215C10.7531 17.0387 10.1625 17.3434 9.60469 17.9012C9.26719 18.234 9.16406 18.3793 8.98125 18.7496C8.72344 19.2746 8.625 19.6918 8.625 20.273C8.625 20.8543 8.72344 21.2715 8.98125 21.7965C9.16875 22.1715 9.27188 22.3074 9.62813 22.6637C9.975 23.0105 10.1297 23.1277 10.4531 23.2824C11.025 23.5637 11.3625 23.6387 12 23.6387C12.6375 23.6387 12.975 23.5637 13.5469 23.2824C13.8703 23.1277 14.025 23.0105 14.3719 22.6637C14.7281 22.3074 14.8313 22.1715 15.0188 21.7965C15.2766 21.2715 15.375 20.8543 15.375 20.273C15.375 19.6965 15.2766 19.2746 15.0188 18.7496C14.8313 18.3699 14.7375 18.2387 14.3719 17.8824C14.0297 17.5402 13.8703 17.4184 13.5469 17.2637C13.3266 17.1559 13.0172 17.034 12.8578 16.9965C12.4969 16.9027 11.8219 16.8652 11.4797 16.9215ZM12.2484 17.9152C12.2906 17.9668 12.3281 18.0793 12.3281 18.1684C12.3281 18.3043 12.3516 18.3371 12.5063 18.4168C12.8484 18.5949 13.1016 18.9512 13.1531 19.3309C13.1813 19.5137 13.1672 19.5559 13.0641 19.659C12.8156 19.9074 12.4688 19.7246 12.4688 19.3449C12.4688 19.284 12.4078 19.1809 12.3375 19.1105C12.2344 19.0121 12.1594 18.984 12 18.984C11.7094 18.984 11.5312 19.1574 11.5312 19.4434C11.5312 19.7387 11.7 19.8934 12.0609 19.9402C12.7125 20.0152 13.1438 20.4793 13.1438 21.0934C13.1438 21.548 12.9 21.9324 12.4828 22.1434C12.3563 22.209 12.3281 22.2465 12.3281 22.3777C12.3281 22.598 12.1922 22.748 12 22.748C11.8078 22.748 11.6719 22.598 11.6719 22.3777C11.6719 22.2465 11.6438 22.209 11.5219 22.1434C11.1609 21.9652 10.8984 21.5996 10.8469 21.2152C10.8188 21.0324 10.8328 20.9902 10.9359 20.8871C11.1234 20.6996 11.3438 20.7277 11.4609 20.9574C11.4984 21.0277 11.5312 21.1309 11.5312 21.1824C11.5312 21.234 11.5875 21.3371 11.6531 21.4168C11.7563 21.5434 11.8031 21.5621 12 21.5621C12.1969 21.5621 12.2438 21.5434 12.3469 21.4168C12.5203 21.2105 12.5156 20.9434 12.3328 20.7605C12.2438 20.6715 12.1453 20.6246 12.0609 20.6246C11.6344 20.6246 11.1562 20.334 10.9547 19.9496C10.8188 19.6871 10.8188 19.2184 10.9547 18.9605C11.0719 18.7402 11.3063 18.5105 11.5219 18.4027C11.6391 18.3418 11.6719 18.2949 11.6719 18.1824C11.6719 17.8121 12.0188 17.6527 12.2484 17.9152Z" fill="white"/>
</svg>
