<svg width="24" height="24" viewBox="0 0 24 24" fill="none" xmlns="http://www.w3.org/2000/svg">
<path d="M5.20312 5.2875V8.75156L5.38125 8.80312C5.68594 8.89687 7.41563 9.92344 7.58438 10.1109C7.7625 10.3125 7.89844 10.7203 7.85625 10.9406L7.82812 11.0906L8.84531 11.4516C9.40781 11.6484 9.9 11.8125 9.94219 11.8125C9.98438 11.8125 10.0547 11.7656 10.1063 11.7094C10.2703 11.5219 10.8844 11.1562 11.1891 11.0625C11.6156 10.9312 12.1266 10.9406 12.8953 11.0906C13.9172 11.2922 15.2719 11.3016 15.9938 11.1047C16.1531 11.0625 16.1672 11.0484 16.1438 10.9266C16.1016 10.725 16.2422 10.3078 16.4156 10.1109C16.5844 9.92344 18.3141 8.89687 18.6234 8.80312L18.7969 8.75156V5.2875V1.82812H12H5.20312V5.2875ZM9.12656 3.525C9.19219 3.58594 9.23438 3.67969 9.23438 3.77344C9.23438 3.9 9.14063 4.0125 8.56406 4.58437C7.72969 5.41406 7.76719 5.40469 7.22813 4.86094C6.87656 4.50469 6.83906 4.45312 6.85313 4.3125C6.87188 4.11094 7.06406 3.96094 7.24219 4.00312C7.3125 4.02187 7.45312 4.11562 7.56094 4.21875L7.75781 4.40156L8.25469 3.90937C8.79844 3.37969 8.91563 3.32344 9.12656 3.525ZM17.0484 4.13437C17.1938 4.27031 17.1891 4.47187 17.0391 4.61719L16.9266 4.73437H13.9266C11.7984 4.73437 10.8938 4.72031 10.8094 4.68281C10.575 4.575 10.5516 4.20937 10.7672 4.08281C10.8234 4.05 11.8547 4.03594 13.8938 4.03125H16.9406L17.0484 4.13437ZM9.1125 7.55156C9.19688 7.61719 9.23438 7.69219 9.23438 7.79531C9.23438 7.92187 9.14531 8.03437 8.56875 8.61094C7.73438 9.44531 7.77656 9.43594 7.23281 8.89687C6.9375 8.60625 6.84375 8.47969 6.84375 8.38594C6.84375 8.22656 6.97031 8.07656 7.13438 8.03437C7.2375 8.01094 7.29844 8.04375 7.49063 8.22187C7.61719 8.33906 7.73906 8.4375 7.7625 8.4375C7.78594 8.4375 8.025 8.21719 8.29688 7.94531C8.82188 7.42031 8.89688 7.38281 9.1125 7.55156ZM17.0672 8.15156C17.1844 8.29687 17.1797 8.475 17.0531 8.61094L16.9547 8.71875H13.8938C11.0531 8.71875 10.8328 8.71406 10.7438 8.63437C10.6875 8.59219 10.6313 8.49844 10.6125 8.42812C10.5891 8.325 10.6125 8.26875 10.725 8.15625L10.8703 8.01562L13.9219 8.025L16.9781 8.03906L17.0672 8.15156Z" fill="white"/>
<path d="M4.85618 9.57026C4.79525 9.63119 4.08743 10.8171 3.28587 12.2093C1.72962 14.914 1.69681 14.9796 1.92181 15.1765C1.97337 15.2187 2.40931 15.4859 2.89681 15.7624C3.61868 16.1796 3.79681 16.264 3.90931 16.2406C3.98431 16.2265 4.07337 16.1937 4.10618 16.1656C4.1765 16.1046 7.064 11.1171 7.13431 10.9296C7.23743 10.6624 7.13431 10.5687 6.14056 9.99213C5.58743 9.67338 5.17962 9.46713 5.10462 9.46713C5.02962 9.46713 4.92181 9.51401 4.85618 9.57026Z" fill="white"/>
<path d="M17.8592 9.99213C16.8655 10.5687 16.7624 10.6624 16.8655 10.9296C16.9358 11.1171 19.8186 16.1046 19.8936 16.1656C19.9264 16.1937 20.0155 16.2265 20.0905 16.2406C20.203 16.264 20.3811 16.1796 21.103 15.7624C21.5905 15.4859 22.0264 15.2187 22.078 15.1765C22.303 14.9796 22.2749 14.914 20.7139 12.2046C19.9124 10.8171 19.2046 9.63119 19.1436 9.57026C19.078 9.51401 18.9702 9.46713 18.8952 9.46713C18.8202 9.46713 18.4124 9.67338 17.8592 9.99213Z" fill="white"/>
<path d="M11.2359 11.7839C11.0906 11.8448 10.8656 11.9761 10.7437 12.0745C10.4296 12.3277 9.239 13.4527 9.19213 13.5417C9.16869 13.5839 9.13588 14.0948 9.11713 14.6761C9.07494 15.8948 9.06088 15.8527 9.5015 15.7261C9.88119 15.6136 10.0359 15.4402 10.4203 14.6948C10.7531 14.0433 10.7578 14.0386 11.0156 13.912C11.4468 13.7011 11.8734 13.5464 12.1734 13.4948C12.6796 13.4058 12.7874 13.4573 15.239 14.873C16.4624 15.5808 17.5078 16.1808 17.564 16.2136C17.6578 16.2605 17.7421 16.2323 18.2343 15.9839L18.8015 15.7027L18.6843 15.5011C18.6187 15.3933 18.1031 14.5027 17.5406 13.523C16.6359 11.9573 16.4953 11.7417 16.3968 11.7464C16.3406 11.7464 16.1203 11.7886 15.914 11.8308C15.0796 12.0136 13.9406 11.9995 12.8484 11.7886C12.0421 11.6386 11.6015 11.6339 11.2359 11.7839Z" fill="white"/>
<path d="M7.41544 11.8683C7.36388 11.9527 6.83419 12.8714 6.23888 13.9073C5.49825 15.187 5.16075 15.8152 5.18888 15.8573C5.25919 15.9839 6.44044 17.437 6.46388 17.437C6.47794 17.437 6.567 17.3245 6.65606 17.1933C7.06856 16.5745 7.34513 16.387 7.82794 16.387C8.20763 16.387 8.54044 16.5464 8.79356 16.8464L8.96231 17.0527L9.15919 16.9636C9.84356 16.6542 10.8139 17.2636 10.8279 18.0089C10.8279 18.1214 10.8467 18.1402 10.9592 18.1402C11.3154 18.1402 11.817 18.5386 11.9764 18.9464C12.0561 19.162 12.0561 19.5323 11.9764 19.7714C11.9483 19.8511 11.9576 19.8745 12.0186 19.8745C12.2436 19.8745 12.6889 20.2355 12.8576 20.5542C12.9514 20.7323 12.9842 21.098 12.9279 21.3933C12.9186 21.4636 13.0217 21.548 13.4248 21.787C14.0436 22.1527 14.2217 22.1902 14.4326 22.0027C14.6154 21.8339 14.6764 21.637 14.6061 21.4214C14.5639 21.2808 14.4842 21.2152 14.0623 20.9667C13.0733 20.3902 13.0076 20.3386 12.9936 20.1511C12.9795 20.0105 13.0029 19.9589 13.1061 19.8792C13.1764 19.8277 13.2701 19.7808 13.3217 19.7808C13.3686 19.7808 13.8233 20.0245 14.3295 20.3198C15.3889 20.9339 15.4733 20.9573 15.7311 20.6995C15.8623 20.5683 15.8904 20.5027 15.8904 20.3433C15.8904 20.2355 15.8717 20.1089 15.8436 20.062C15.8201 20.0152 15.4217 19.762 14.967 19.4995C14.5076 19.2323 14.0951 18.9745 14.0529 18.9277C13.8701 18.7214 14.0154 18.3745 14.2873 18.3745C14.367 18.3745 14.817 18.6089 15.5014 19.0073C16.3873 19.523 16.6217 19.6402 16.767 19.6402C17.0623 19.6355 17.2498 19.4245 17.2498 19.0917C17.2498 18.8386 17.1654 18.7683 16.0029 18.098C15.1873 17.6292 14.9998 17.5027 14.9529 17.3855C14.9014 17.2589 14.9061 17.2261 14.9858 17.1183C15.1873 16.8464 15.2436 16.8605 16.1389 17.3808C17.1092 17.948 17.1983 17.9855 17.3951 17.9011C17.6998 17.7792 17.8217 17.3198 17.6154 17.0902C17.4748 16.9402 12.8436 14.2683 12.6139 14.2027C12.3748 14.137 12.042 14.2073 11.6061 14.4089L11.2592 14.5683L10.9686 15.1308C10.6311 15.7964 10.3592 16.1105 9.9795 16.2839C9.27169 16.6073 8.69513 16.4948 8.47013 15.9886C8.38106 15.7917 8.38106 15.7167 8.40919 14.7605C8.42794 14.2027 8.46075 13.6214 8.4795 13.4761C8.517 13.2089 8.52638 13.1948 8.93419 12.8152C9.21544 12.5573 9.33731 12.4167 9.3045 12.3839C9.27169 12.3464 7.5795 11.7183 7.51856 11.7183C7.51388 11.7183 7.467 11.7886 7.41544 11.8683Z" fill="white"/>
<path d="M7.57972 17.1548C7.45785 17.2486 6.59066 18.4486 6.5016 18.6407C6.43129 18.8001 6.5016 19.0579 6.66097 19.1892C6.83441 19.3392 7.15785 19.3579 7.30316 19.2267C7.45785 19.0907 8.30629 17.8532 8.35785 17.6939C8.4141 17.497 8.32972 17.3142 8.1141 17.1689C7.91722 17.0376 7.7391 17.0329 7.57972 17.1548Z" fill="white"/>
<path d="M9.28594 17.7047C9.21094 17.7797 8.80781 18.3187 8.39531 18.9093C7.73438 19.8562 7.64062 20.0109 7.64062 20.1703C7.64062 20.5781 8.16094 20.8265 8.45625 20.5687C8.52656 20.5078 8.925 19.964 9.35156 19.3593C9.98906 18.4453 10.125 18.2297 10.125 18.0937C10.125 17.6625 9.59531 17.4187 9.28594 17.7047Z" fill="white"/>
<path d="M10.4999 18.9459C10.3264 19.124 9.14988 20.835 9.11706 20.9615C9.07488 21.1256 9.20144 21.3787 9.37019 21.4818C9.54363 21.585 9.80613 21.585 9.93269 21.4771C9.98425 21.435 10.3264 20.9756 10.6874 20.46C11.2686 19.6256 11.3436 19.499 11.3436 19.3303C11.3436 19.1615 11.3202 19.11 11.1796 18.9881C10.9639 18.8006 10.6686 18.7865 10.4999 18.9459Z" fill="white"/>
<path d="M11.4562 20.6149C11.3202 20.7274 10.8749 21.3602 10.8187 21.5195C10.6827 21.9133 11.1515 22.3024 11.5499 22.1195C11.6812 22.0586 12.2108 21.3133 12.2577 21.1258C12.3608 20.732 11.7702 20.357 11.4562 20.6149Z" fill="white"/>
</svg>
