<svg width="16" height="16" viewBox="0 0 16 16" fill="none" xmlns="http://www.w3.org/2000/svg">
<path d="M11.5999 1.59961C11.4938 1.59961 11.3921 1.64175 11.3171 1.71677C11.2421 1.79178 11.1999 1.89352 11.1999 1.99961C11.1999 2.1057 11.2421 2.20744 11.3171 2.28245C11.3921 2.35747 11.4938 2.39961 11.5999 2.39961H13.0343L9.19992 6.23401L7.08312 4.11641C7.04596 4.07916 7.00182 4.0496 6.95323 4.02944C6.90463 4.00927 6.85253 3.99889 6.79992 3.99889C6.74731 3.99889 6.69521 4.00927 6.64661 4.02944C6.59802 4.0496 6.55388 4.07916 6.51672 4.11641L2.51672 8.11641C2.44161 8.19152 2.39941 8.29339 2.39941 8.39961C2.39941 8.50583 2.44161 8.6077 2.51672 8.68281C2.59183 8.75792 2.6937 8.80011 2.79992 8.80011C2.90614 8.80011 3.00801 8.75792 3.08312 8.68281L6.79992 4.96521L8.91672 7.08281C8.95388 7.12006 8.99802 7.14961 9.04661 7.16978C9.09521 7.18994 9.14731 7.20032 9.19992 7.20032C9.25253 7.20032 9.30463 7.18994 9.35323 7.16978C9.40182 7.14961 9.44596 7.12006 9.48312 7.08281L13.5999 2.96521V4.39961C13.5999 4.5057 13.6421 4.60744 13.7171 4.68245C13.7921 4.75747 13.8938 4.79961 13.9999 4.79961C14.106 4.79961 14.2077 4.75747 14.2828 4.68245C14.3578 4.60744 14.3999 4.5057 14.3999 4.39961V1.99961C14.3999 1.89352 14.3578 1.79178 14.2828 1.71677C14.2077 1.64175 14.106 1.59961 13.9999 1.59961H11.5999ZM12.3999 7.19961C12.2938 7.19961 12.1921 7.24175 12.1171 7.31677C12.0421 7.39178 11.9999 7.49352 11.9999 7.59961V13.9996C11.9999 14.1057 12.0421 14.2074 12.1171 14.2825C12.1921 14.3575 12.2938 14.3996 12.3999 14.3996C12.506 14.3996 12.6077 14.3575 12.6828 14.2825C12.7578 14.2074 12.7999 14.1057 12.7999 13.9996V7.59961C12.7999 7.49352 12.7578 7.39178 12.6828 7.31677C12.6077 7.24175 12.506 7.19961 12.3999 7.19961ZM5.99992 8.79961C5.89383 8.79961 5.79209 8.84175 5.71708 8.91677C5.64206 8.99178 5.59992 9.09352 5.59992 9.19961V13.9996C5.59992 14.1057 5.64206 14.2074 5.71708 14.2825C5.79209 14.3575 5.89383 14.3996 5.99992 14.3996C6.10601 14.3996 6.20775 14.3575 6.28276 14.2825C6.35778 14.2074 6.39992 14.1057 6.39992 13.9996V9.19961C6.39992 9.09352 6.35778 8.99178 6.28276 8.91677C6.20775 8.84175 6.10601 8.79961 5.99992 8.79961ZM8.79992 10.7996C8.79992 10.6935 8.84206 10.5918 8.91708 10.5168C8.99209 10.4418 9.09383 10.3996 9.19992 10.3996C9.30601 10.3996 9.40775 10.4418 9.48276 10.5168C9.55778 10.5918 9.59992 10.6935 9.59992 10.7996V13.9996C9.59992 14.1057 9.55778 14.2074 9.48276 14.2825C9.40775 14.3575 9.30601 14.3996 9.19992 14.3996C9.09383 14.3996 8.99209 14.3575 8.91708 14.2825C8.84206 14.2074 8.79992 14.1057 8.79992 13.9996V10.7996ZM2.39992 11.5996C2.39992 11.4935 2.44206 11.3918 2.51708 11.3168C2.59209 11.2418 2.69383 11.1996 2.79992 11.1996C2.90601 11.1996 3.00775 11.2418 3.08276 11.3168C3.15778 11.3918 3.19992 11.4935 3.19992 11.5996V13.9996C3.19992 14.1057 3.15778 14.2074 3.08276 14.2825C3.00775 14.3575 2.90601 14.3996 2.79992 14.3996C2.69383 14.3996 2.59209 14.3575 2.51708 14.2825C2.44206 14.2074 2.39992 14.1057 2.39992 13.9996V11.5996Z" fill="white"/>
</svg>
