<svg width="16" height="16" viewBox="0 0 16 16" fill="none" xmlns="http://www.w3.org/2000/svg">
<path d="M9.6565 3.48461C9.379 3.48661 9.1035 3.50011 8.8125 3.57811C8.49541 3.66394 8.19458 3.80126 7.922 3.98461C7.539 3.75961 7.168 3.57461 6.8125 3.53111C6.371 3.47661 5.961 3.50611 5.4845 3.51611C4.9195 3.52761 4.551 3.81611 3.953 4.04711C3.3555 4.27711 2.586 4.50011 1.5 4.50011H1V9.31261L1.2815 9.45311L2.203 9.90661L5.4845 13.5626L5.5 13.5781C5.875 13.9491 6.381 14.0411 6.828 14.0156C7.2755 13.9906 7.6955 13.8596 8.031 13.6566C8.7695 13.2111 10.781 11.8126 10.781 11.8126L10.828 11.7811L10.8595 11.7501C11.0975 11.5136 11.217 11.2251 11.297 10.9221L13.2185 9.95311L14.656 9.46911L15 9.35911V4.50011H14.5C13.6595 4.50637 12.8259 4.34701 12.047 4.03111C11.449 3.79761 11.086 3.51211 10.515 3.50011C10.21 3.49411 9.9335 3.48261 9.6565 3.48461ZM9.6715 4.48461C9.8965 4.48261 10.1565 4.49461 10.4845 4.50011C10.537 4.50211 11.0175 4.70711 11.6875 4.96911C12.254 5.19161 13.041 5.38911 14 5.45311V8.64061L12.8435 9.03161H12.8125L12.781 9.04661L11.266 9.81261C11.1856 9.58057 11.0579 9.36776 10.891 9.18761L10.8595 9.14061L8.7345 6.53161L8.422 6.14061L8.031 6.45311L6.6875 7.54711C6.2365 7.85961 5.871 7.76961 5.5 7.59411C5.3925 7.54311 5.3985 7.52761 5.3125 7.46911L7.594 5.57811L7.625 5.54711C8.3025 4.87511 8.719 4.64261 9.078 4.54711C9.258 4.49811 9.447 4.48661 9.6715 4.48461ZM6.188 4.50011C6.35482 4.49334 6.52192 4.49852 6.688 4.51561C6.819 4.53111 6.9675 4.64261 7.0945 4.68761C7.0435 4.73461 7.0065 4.76161 6.9535 4.81261L6.9225 4.84411L4.188 7.10911L3.766 7.45311L4.141 7.84361C4.141 7.84361 4.5025 8.23461 5.063 8.50011C5.6235 8.76561 6.489 8.91611 7.266 8.37511L7.2975 8.34361L8.266 7.54711L10.11 9.81261L10.1255 9.84411L10.141 9.85911C10.471 10.1856 10.4635 10.6991 10.141 11.0316C10.137 11.0351 10.145 11.0431 10.141 11.0466C10.137 11.0491 10.071 11.0881 10.063 11.0941L9.4065 10.2031L8.594 10.7971L9.235 11.6561C8.975 11.8321 8.858 11.9241 8.5785 12.1096L7.907 11.2031L7.094 11.7971L7.735 12.6561C7.678 12.6911 7.561 12.7696 7.516 12.7971C7.358 12.8926 7.053 13.0001 6.7815 13.0156C6.526 13.0296 6.3305 12.9706 6.235 12.8906L6.2195 12.8751L2.8755 9.17211L2.813 9.09361L2 8.68761V5.45311C2.955 5.39061 3.748 5.20111 4.3125 4.98461C4.9805 4.72861 5.4575 4.51761 5.5155 4.51561L6.188 4.50011Z" fill="white"/>
</svg>
