<svg width="24" height="24" viewBox="0 0 24 24" fill="none" xmlns="http://www.w3.org/2000/svg">
<g clip-path="url(#clip0_20788_787755)">
<path d="M8 7C8 8.06087 8.42143 9.07828 9.17157 9.82843C9.92172 10.5786 10.9391 11 12 11C13.0609 11 14.0783 10.5786 14.8284 9.82843C15.5786 9.07828 16 8.06087 16 7C16 5.93913 15.5786 4.92172 14.8284 4.17157C14.0783 3.42143 13.0609 3 12 3C10.9391 3 9.92172 3.42143 9.17157 4.17157C8.42143 4.92172 8 5.93913 8 7Z" stroke="white" stroke-linecap="round" stroke-linejoin="round"/>
<path d="M6 21V19C6 17.9391 6.42143 16.9217 7.17157 16.1716C7.92172 15.4214 8.93913 15 10 15H10.5" stroke="white" stroke-linecap="round" stroke-linejoin="round"/>
<path d="M17.8 20.8175L15.628 21.9555C15.5635 21.989 15.491 22.004 15.4186 21.9987C15.3461 21.9934 15.2765 21.9681 15.2176 21.9256C15.1587 21.8831 15.1127 21.825 15.0849 21.7579C15.0571 21.6907 15.0485 21.6172 15.06 21.5455L15.475 19.1345L13.718 17.4275C13.6656 17.3768 13.6284 17.3123 13.6108 17.2416C13.5933 17.1708 13.5959 17.0965 13.6186 17.0271C13.6412 16.9578 13.6829 16.8962 13.7388 16.8494C13.7948 16.8026 13.8627 16.7725 13.935 16.7625L16.363 16.4105L17.449 14.2175C17.4815 14.1521 17.5315 14.0972 17.5935 14.0588C17.6556 14.0204 17.727 14 17.8 14C17.8729 14 17.9444 14.0204 18.0064 14.0588C18.0685 14.0972 18.1185 14.1521 18.151 14.2175L19.237 16.4105L21.665 16.7625C21.737 16.7728 21.8047 16.8031 21.8604 16.85C21.9162 16.8968 21.9576 16.9583 21.9802 17.0275C22.0028 17.0967 22.0056 17.1708 21.9882 17.2415C21.9708 17.3122 21.9341 17.3766 21.882 17.4275L20.125 19.1345L20.539 21.5445C20.5514 21.6163 20.5434 21.6902 20.516 21.7578C20.4885 21.8254 20.4426 21.8839 20.3836 21.9267C20.3245 21.9695 20.2547 21.9949 20.1819 22C20.1092 22.005 20.0364 21.9896 19.972 21.9555L17.8 20.8175Z" stroke="white" stroke-linecap="round" stroke-linejoin="round"/>
</g>
<defs>
<clipPath id="clip0_20788_787755">
<rect width="24" height="24" fill="white"/>
</clipPath>
</defs>
</svg>
