<svg width="24" height="24" viewBox="0 0 24 24" fill="none" xmlns="http://www.w3.org/2000/svg">
<g clip-path="url(#clip0_20788_787738)">
<path opacity="0.5" d="M3.4125 0.33385C2.81719 0.404162 2.23125 0.70885 1.80469 1.17291C1.5 1.50572 1.33125 1.82448 1.21875 2.27448C0.99375 3.14166 1.18594 4.00416 1.75313 4.7026L1.96406 4.95573L1.66406 5.13385C1.05938 5.48541 0.571875 6.02916 0.28125 6.67135C0.0375 7.20572 0 7.45885 0 8.63072C0 9.6901 0 9.69479 0.1125 9.82604L0.225 9.95729L3.69844 9.97135C7.48125 9.98541 7.35 9.9901 7.52813 9.72291C7.59375 9.61979 7.60313 9.4651 7.58438 8.51822C7.56563 7.5526 7.55156 7.38854 7.45781 7.09791C7.35 6.76979 7.09688 6.26354 6.92813 6.04322C6.69844 5.73854 6.27188 5.35885 5.94375 5.15729L5.58281 4.93229L5.70469 4.81979C5.87813 4.65573 6.16875 4.20104 6.27656 3.91041C6.40781 3.55885 6.46875 3.0151 6.41719 2.62604C6.36094 2.17604 6.225 1.81041 5.97188 1.4401C5.41875 0.624475 4.47188 0.216662 3.4125 0.33385ZM4.425 1.39323C4.92188 1.61354 5.27344 2.03073 5.41406 2.55104C5.51719 2.9401 5.47031 3.29166 5.26406 3.69948C5.08125 4.06979 4.8375 4.30885 4.45312 4.49166C4.23281 4.59479 4.13438 4.61354 3.75 4.61354C3.35156 4.61354 3.27656 4.59947 3.02813 4.4776C2.67188 4.30416 2.37188 4.00416 2.2125 3.66197C2.10469 3.43229 2.08594 3.33385 2.08594 2.94948C2.08594 2.55573 2.1 2.47604 2.21719 2.26041C2.45156 1.8151 2.71875 1.56666 3.18281 1.36979C3.525 1.22447 4.07344 1.23854 4.425 1.39323ZM4.75313 5.69635C5.16563 5.80416 5.55938 6.02916 5.86406 6.32916C6.40313 6.86354 6.60938 7.44947 6.60938 8.41979V8.99635H3.75H0.890625V8.39635C0.890625 8.03072 0.91875 7.68385 0.960938 7.50104C1.1625 6.6526 1.87031 5.92604 2.72344 5.69635C3.08906 5.59791 4.36875 5.59791 4.75313 5.69635Z" fill="white"/>
<path d="M15.2156 3.70535C14.6109 3.7616 13.7812 3.9491 13.2187 4.15535C10.5516 5.14442 8.71875 7.2866 8.1 10.1272C8.01094 10.5491 7.99687 10.7554 7.99687 11.6929C7.99219 12.6491 8.00625 12.8272 8.1 13.2632C8.25937 13.9804 8.50781 14.6882 8.80781 15.2882L9.075 15.8179L6.675 18.2085C4.04531 20.8241 4.10156 20.7585 3.98437 21.4335C3.80156 22.4741 4.56562 23.5194 5.61562 23.66C6.01406 23.7163 6.43594 23.6507 6.79687 23.4772C7.06875 23.3413 7.34531 23.0835 9.47812 20.96L11.85 18.5929L12.3703 18.86C14.2547 19.8257 16.4344 19.9897 18.4687 19.3288C20.9062 18.5319 22.8328 16.6288 23.6203 14.2475C23.9297 13.296 23.9719 12.9866 23.9719 11.6929C23.9719 10.6569 23.9578 10.4694 23.8687 10.0569C23.0859 6.55067 20.2547 4.02879 16.7344 3.70535C16.1297 3.6491 15.8859 3.6491 15.2156 3.70535ZM17.1562 4.71785C18.4781 4.92879 19.8375 5.61317 20.8453 6.57879C22.7062 8.35535 23.4562 10.9054 22.8469 13.385C22.1812 16.1085 19.9266 18.1757 17.1047 18.6585C16.6125 18.7429 16.4016 18.7522 15.75 18.7335C14.9062 18.7054 14.5406 18.6444 13.8 18.396C13.2469 18.2132 12.7781 17.9975 12.2812 17.6975C12.0234 17.5382 11.8781 17.4819 11.7469 17.4819C11.5641 17.4819 11.5172 17.5241 8.98125 20.0554C6.58594 22.4366 6.38437 22.6288 6.18281 22.6757C5.89687 22.746 5.65781 22.6991 5.4 22.5257C5.00156 22.2585 4.86562 21.771 5.05781 21.3444C5.11875 21.2085 5.89687 20.3975 7.63125 18.6444C9 17.2663 10.1437 16.0804 10.1719 16.0054C10.2328 15.8413 10.2094 15.7663 9.90937 15.2507C9.47812 14.496 9.225 13.835 9.04219 12.9819C8.84531 12.0491 8.91094 10.746 9.21094 9.69129C9.73125 7.86785 11.0953 6.24129 12.825 5.3741C14.1937 4.68973 15.6281 4.46942 17.1562 4.71785Z" fill="white"/>
<path d="M15.4031 5.39102C13.2656 5.57852 11.3812 6.84414 10.3875 8.76133C9.88589 9.72695 9.68433 10.552 9.68433 11.6676C9.68433 13.0035 9.9937 14.0488 10.7109 15.141C11.6437 16.5707 13.2375 17.6066 14.9062 17.8785C15.4781 17.9676 16.5093 17.9676 17.0437 17.8785C19.6968 17.4191 21.7312 15.3848 22.1953 12.727C22.2843 12.1926 22.2843 11.166 22.1953 10.5895C21.8765 8.64883 20.6015 6.92852 18.8015 6.01914C17.8218 5.52695 16.5328 5.28789 15.4031 5.39102ZM16.664 6.3707C18.8531 6.68477 20.6062 8.22227 21.1734 10.3316C21.2859 10.7535 21.3 10.8801 21.3 11.6207C21.3 12.3191 21.2859 12.502 21.1968 12.8629C21.0046 13.627 20.6343 14.3957 20.1984 14.9488L20.0015 15.1973L19.8187 14.8316C19.4437 14.0723 18.825 13.3973 18.15 13.0035L17.7796 12.7879L18.0937 12.4691C19.064 11.4848 19.214 9.91914 18.45 8.76602C17.9015 7.9457 16.964 7.44883 15.9656 7.44883C15.1453 7.44883 14.489 7.72539 13.8937 8.31602C13.2937 8.91133 13.0312 9.54414 13.0312 10.402C13.0312 11.227 13.2843 11.8645 13.8468 12.4457L14.189 12.7973L13.9734 12.9098C13.2421 13.2801 12.5578 13.9926 12.1593 14.7941L11.9625 15.1926L11.7609 14.9348C11.1 14.0957 10.7062 13.0316 10.6546 11.9441C10.5515 9.8582 11.7234 7.84727 13.5984 6.90977C14.1703 6.61914 14.6812 6.46445 15.4218 6.35195C15.6656 6.31914 16.35 6.32852 16.664 6.3707ZM16.4015 8.45664C18.1359 8.86914 18.539 11.0816 17.0531 12.0426C15.8578 12.8207 14.2593 12.1129 14.0109 10.6926C13.9125 10.1254 14.1093 9.5207 14.5406 9.06133C14.8453 8.74258 15.1171 8.57383 15.5156 8.4707C15.8953 8.37227 16.0265 8.36758 16.4015 8.45664ZM16.8281 13.5004C17.8593 13.777 18.7031 14.5598 19.0828 15.6004L19.1906 15.9004L19.0265 16.0363C18.7593 16.2613 17.7796 16.7207 17.2734 16.8566C16.8421 16.9738 16.7343 16.9832 15.9375 16.9832C15.15 16.9832 15.0281 16.9691 14.6156 16.8566C14.1046 16.7207 13.4812 16.4441 13.0453 16.1582C12.7078 15.9426 12.7125 15.9566 12.9375 15.4082C13.5515 13.9129 15.2484 13.0832 16.8281 13.5004Z" fill="white"/>
</g>
<defs>
<clipPath id="clip0_20788_787738">
<rect width="24" height="24" fill="white"/>
</clipPath>
</defs>
</svg>
