<svg width="16" height="16" viewBox="0 0 16 16" fill="none" xmlns="http://www.w3.org/2000/svg">
<g clip-path="url(#clip0_20986_232652)">
<path d="M0.586914 0.609375V3.09862C1.98329 3.27306 3.13432 3.87881 4.23245 4.57225L3.45901 5.19922L6.63973 6.82125L5.7666 3.32812L4.95707 3.98438C4.32504 2.73406 3.62026 1.55531 2.68363 0.609375H0.586914ZM9.25491 0.609375C8.76666 1.50828 8.3422 2.42581 7.94929 3.36425L7.00585 3.16406L7.81648 6.67188L9.9121 3.78125L8.98735 3.585C10.0277 2.49916 11.0998 1.46647 12.3643 0.609375H9.25491ZM15.4268 3.542C14.2397 3.61956 13.1755 4.15691 12.1446 4.82031L11.7549 3.80375L9.25298 6.39259L12.8184 6.57812L12.4044 5.49803C13.4119 5.46884 14.4193 5.55512 15.4268 6.166V3.542ZM9.36335 7.54294C9.19835 7.54669 9.04429 7.61844 8.83404 7.84278L8.62895 8.06053L8.41604 7.85053C8.1852 7.62303 8.00304 7.56022 7.81838 7.56834C7.63376 7.57647 7.41666 7.67356 7.17385 7.87009L6.97954 8.02728L6.79498 7.85934C6.51685 7.60772 6.27982 7.53316 6.05279 7.54488C5.88754 7.55344 5.71607 7.61569 5.54498 7.72456L6.82523 10.0273C7.30816 10.3227 8.29501 10.4338 8.97366 10.0918L10.211 7.79978C9.97629 7.70409 9.76535 7.60597 9.58304 7.56834C9.51704 7.55469 9.45579 7.54472 9.39648 7.54294C9.38544 7.54266 9.37439 7.54266 9.36335 7.54294ZM6.55179 10.5489C5.9882 10.9471 5.53566 11.6338 5.36038 12.6397C5.19054 13.6145 5.45813 14.2729 5.9317 14.7217C6.40529 15.1704 7.11613 15.4009 7.83795 15.3916C8.55982 15.3822 9.27969 15.1319 9.76373 14.6748C10.2478 14.2177 10.5215 13.5677 10.3663 12.6377C10.2058 11.6765 9.79129 11.0081 9.2666 10.6035C8.37654 11.074 7.26366 10.974 6.55179 10.5488V10.5489Z" fill="#175FFF"/>
</g>
<defs>
<clipPath id="clip0_20986_232652">
<rect width="16" height="16" fill="white"/>
</clipPath>
</defs>
</svg>
