<svg width="24" height="24" viewBox="0 0 24 24" fill="none" xmlns="http://www.w3.org/2000/svg">
<path d="M6.74531 0.0796871C6.47344 0.16875 6.12187 0.43125 5.92031 0.69375C5.73281 0.9375 5.57812 1.425 5.57812 1.75781C5.57812 2.10469 5.73281 2.55937 5.93906 2.82187C6.0375 2.94375 6.52969 3.37031 7.03125 3.77344L7.94531 4.5H12H16.0547L16.9687 3.77344C17.4703 3.37031 17.9625 2.94375 18.0609 2.82187C18.4266 2.35781 18.5156 1.67344 18.2812 1.05469C18.15 0.717187 17.7703 0.314062 17.4141 0.140625L17.1797 0.0234375L12.0703 0.0140624C7.56094 0.00468731 6.9375 0.0140624 6.74531 0.0796871Z" fill="white"/>
<path d="M7.52815 6.28125C5.1844 8.8125 3.48752 12.4406 3.07034 15.8062C2.98127 16.5328 2.98127 17.9203 3.07034 18.5484C3.47346 21.375 4.9969 23.2734 7.34534 23.8734C7.75784 23.9766 7.75784 23.9766 12.1406 23.9766H16.5235L16.9922 23.8453C19.1766 23.2406 20.5688 21.4078 20.9297 18.6703C21.0235 17.9719 21.0188 16.5469 20.9297 15.8062C20.6532 13.575 19.8047 11.1937 18.5156 9.02812C17.925 8.03437 17.3766 7.29375 16.5797 6.40781L16.2094 6H12H7.79065L7.52815 6.28125ZM12.4172 10.1672C12.6469 10.3312 12.7125 10.5094 12.7407 11.0484L12.7641 11.5312H13.3453C13.9969 11.5312 14.1188 11.5687 14.3203 11.8359C14.5922 12.1875 14.4703 12.675 14.0625 12.8766C13.8657 12.9797 13.8047 12.9844 12.6563 12.9844C11.5875 12.9844 11.4422 12.9937 11.3016 13.0687C10.8891 13.2891 10.8656 13.9172 11.2594 14.1562C11.3813 14.2312 11.4985 14.25 11.836 14.25C12.8672 14.2547 13.4203 14.4422 13.8891 14.9531C14.5125 15.6234 14.6438 16.4859 14.2453 17.2969C13.9922 17.8078 13.411 18.2859 12.9094 18.3937L12.7641 18.4266L12.7407 18.9422C12.7172 19.3875 12.6985 19.4766 12.5953 19.6359C12.3047 20.0719 11.6953 20.0719 11.4047 19.6359C11.3016 19.4812 11.2828 19.3875 11.2641 18.9609L11.236 18.4688H10.6406C10.1016 18.4688 10.0313 18.4594 9.89065 18.3609C9.5344 18.1219 9.43596 17.7891 9.61877 17.4375C9.69846 17.2828 9.78284 17.1984 9.93752 17.1187C10.1344 17.0203 10.1953 17.0156 11.3438 17.0156C12.4125 17.0156 12.5578 17.0062 12.6985 16.9312C13.111 16.7109 13.1344 16.0828 12.7407 15.8438C12.6188 15.7687 12.5016 15.75 12.1641 15.75C11.9344 15.75 11.5828 15.7266 11.3906 15.7031C10.2235 15.5531 9.36565 14.4516 9.55315 13.3359C9.67034 12.6281 10.1016 12.0469 10.7438 11.7422C10.9313 11.6531 11.1188 11.5781 11.1656 11.5781C11.2407 11.5781 11.25 11.5312 11.25 11.2125C11.2547 10.5422 11.3531 10.2937 11.6719 10.1156C11.8828 9.99844 12.211 10.0219 12.4172 10.1672Z" fill="white"/>
</svg>
