<svg width="24" height="24" viewBox="0 0 24 24" fill="none" xmlns="http://www.w3.org/2000/svg">
<path d="M4.27124 12.0002C4.27124 16.2684 7.73136 19.7285 11.9996 19.7285C16.0043 19.7285 19.2973 16.6824 19.6887 12.7809H16.1465C15.7784 14.7357 14.0589 16.2189 11.9996 16.2189C9.67268 16.2189 7.78036 14.3266 7.78036 11.9997C7.78036 9.67378 9.67268 7.78145 11.9996 7.78145C12.955 7.78145 13.8371 8.10112 14.5452 8.63862L16.6645 5.8395C15.368 4.85621 13.7522 4.27197 11.9995 4.27197C7.73136 4.27188 4.27124 7.73201 4.27124 12.0002Z" fill="#F6771B"/>
<path d="M19.6886 11.2184H16.1464C16.0258 10.5781 15.7593 9.98915 15.3842 9.48554L14.1314 10.4164C14.4611 10.8588 14.6564 11.4067 14.6564 11.9995C14.6564 13.4652 13.4642 14.6564 11.9995 14.6564C10.5348 14.6564 9.34261 13.4652 9.34261 11.9995C9.34261 10.5348 10.5348 9.3436 11.9995 9.3436C12.6012 9.3436 13.1566 9.54488 13.6025 9.88334L11.9997 12.0002L19.3814 4.61853L20.4867 3.51316C18.2771 1.30449 15.2452 0 11.9995 0C5.38311 0 0 5.38311 0 11.9995C0 18.6169 5.38311 24 11.9995 24C18.3532 24 23.5704 19.0347 23.9746 12.7806H23.9991V11.2183H19.6886V11.2184ZM11.9995 22.4378C6.24432 22.4378 1.56232 17.7557 1.56232 11.9996C1.56232 6.24441 6.24441 1.56241 11.9995 1.56241C14.3247 1.56241 16.5237 2.33282 18.3008 3.67821L16.6645 5.83942L14.5452 8.63854C13.8371 8.10104 12.955 7.78137 11.9996 7.78137C9.67271 7.78137 7.78038 9.6737 7.78038 11.9996C7.78038 14.3265 9.67271 16.2188 11.9996 16.2188C14.059 16.2188 15.7784 14.7356 16.1465 12.7808H19.6887H22.4086C22.0071 18.1726 17.492 22.4378 11.9995 22.4378Z" fill="#4D3528"/>
<path d="M19.7058 6.27441L15.384 9.48562C15.7593 9.98913 16.0257 10.5782 16.1463 11.2185H19.6884C19.5709 10.0485 19.192 8.95603 18.6116 7.99908L19.7058 6.27441Z" fill="#F6771B"/>
</svg>
