<svg width="25" height="24" viewBox="0 0 25 24" fill="none" xmlns="http://www.w3.org/2000/svg">
<path fill-rule="evenodd" clip-rule="evenodd" d="M9.82703 0.680049L9.58923 2.55133C8.80859 2.77079 8.06576 3.08137 7.37347 3.4703L5.88055 2.31464C5.58495 2.08573 5.18381 2.05017 4.91934 2.31464L3.617 3.61698L2.3141 4.91932C2.04963 5.1838 2.08518 5.58551 2.3141 5.88108L3.47032 7.37344C3.08139 8.06573 2.77081 8.80858 2.55134 9.5892L0.679512 9.82699C0.308925 9.87422 0 10.1331 0 10.5071V12.3489V14.1913C0 14.5647 0.308925 14.8236 0.679512 14.8708L2.55134 15.1086C2.77081 15.8898 3.08139 16.6321 3.47032 17.3244L2.3141 18.8173C2.08518 19.1129 2.04963 19.514 2.3141 19.7785L3.617 21.0814L4.91934 22.3837C5.18381 22.6482 5.58495 22.6126 5.88055 22.3837L7.37347 21.2281C7.77851 21.4553 8.20132 21.6564 8.63859 21.8276L9.53868 24V22.1326V17.835L9.06419 17.5611C8.22856 17.0788 8.14966 17.0332 7.31403 16.551C6.34728 15.9926 5.77889 15.5187 5.77889 14.3797L5.77944 11.8717C5.77944 10.9071 5.77944 10.8154 5.77944 9.85148C5.77944 8.7347 5.90557 8.00574 6.89232 7.43625L9.06419 6.18224C9.25588 6.07111 9.4081 5.98334 9.53868 5.90833V12.2456C9.53868 12.639 9.86038 12.9612 10.2538 12.9612H14.4441C14.8375 12.9612 15.1592 12.6389 15.1592 12.2456V5.90833L15.6337 6.18224C16.4688 6.66451 16.5483 6.71006 17.3839 7.19233C18.3501 7.75071 18.9185 8.22521 18.9185 9.36365V11.8717C18.9185 12.8362 18.9185 12.9279 18.9185 13.8924C18.9185 15.0086 18.7918 15.7381 17.8056 16.3076L15.6337 17.5611L15.1592 17.835V22.132V24L16.0593 21.8276C16.4966 21.6559 16.9188 21.4553 17.3244 21.2275L18.8168 22.3837C19.113 22.6126 19.5141 22.6482 19.7786 22.3837L21.0809 21.0814L22.3833 19.7785C22.6477 19.514 22.6127 19.1129 22.3833 18.8173L21.2276 17.3249C21.6171 16.6321 21.9271 15.8898 22.1466 15.1086L24.0179 14.8708C24.389 14.8236 24.6979 14.5647 24.6979 14.1913V12.3489V10.5071C24.6979 10.1332 24.389 9.87425 24.0179 9.82702L22.1466 9.58921C21.9271 8.80858 21.6165 8.0663 21.2276 7.37346L22.3833 5.8811C22.6127 5.58552 22.6477 5.18381 22.3833 4.91934L21.0809 3.617L19.7786 2.31465C19.5141 2.05018 19.113 2.08575 18.8168 2.31465L17.3244 3.47032C16.6322 3.08139 15.8893 2.77081 15.1087 2.55134L14.8709 0.680064C14.8237 0.308925 14.5647 0 14.1908 0H12.349H10.5072C10.1332 0 9.87433 0.308925 9.8271 0.680064L9.82703 0.680049Z" fill="url(#paint0_linear_21314_133666)"/>
<path fill-rule="evenodd" clip-rule="evenodd" d="M18.0478 7.61902C18.9245 8.1374 21.9198 10.2548 22.1465 15.1086L24.0178 14.8708C24.3889 14.8236 24.6979 14.5647 24.6979 14.1913V12.3489V10.5071C24.6979 10.1331 24.3889 9.87423 24.0178 9.82701L22.1465 9.58921C21.927 8.80858 21.6165 8.06629 21.2275 7.37346L22.3832 5.8811C22.6127 5.58552 22.6477 5.18381 22.3832 4.91934L21.0809 3.617L19.7785 2.31466C19.514 2.05018 19.1129 2.08575 18.8168 2.31466L17.3244 3.47032C16.6321 3.08139 15.8892 2.77081 15.1086 2.55134L14.8708 0.680064C14.8236 0.308925 14.5647 0 14.1908 0H12.3489H10.5071C10.1332 0 9.87426 0.308925 9.82704 0.680064L9.58923 2.55134C8.80859 2.77081 8.06577 3.08139 7.37347 3.47032L5.88055 2.31466C5.58495 2.08575 5.18381 2.05018 4.91934 2.31466L3.617 3.617L2.3141 4.91934C2.04963 5.18381 2.08518 5.58551 2.3141 5.8811L3.47032 7.37346C3.08139 8.06575 2.77081 8.80859 2.55134 9.58921L0.679512 9.82701C0.308925 9.87423 0 10.1331 0 10.5071V12.3489V14.1913C0 14.5647 0.308925 14.8236 0.679512 14.8708L2.55134 15.1086C2.7947 9.37696 6.89229 7.43622 6.89229 7.43622L9.06416 6.18221C9.25585 6.07108 9.40807 5.98331 9.53864 5.9083V12.2456C9.53864 12.6389 9.86035 12.9612 10.2537 12.9612H14.4441C14.8375 12.9612 15.1592 12.6389 15.1592 12.2456V5.9083L15.6337 6.18221C16.4688 6.66447 16.5482 6.71003 17.3839 7.1923C17.6322 7.3362 17.8545 7.47399 18.0478 7.619V7.61902Z" fill="url(#paint1_linear_21314_133666)"/>
<path fill-rule="evenodd" clip-rule="evenodd" d="M12.349 3.73645C19.0574 3.53476 22.1466 9.58921 22.1466 9.58921C21.9271 8.80858 21.6165 8.06629 21.2276 7.37346L22.3833 5.8811C22.6127 5.58552 22.6477 5.18381 22.3833 4.91934L21.0809 3.617L19.7786 2.31466C19.5141 2.05018 19.113 2.08575 18.8168 2.31466L17.3244 3.47032C16.6322 3.08139 15.8893 2.77081 15.1087 2.55134L14.8709 0.680064C14.8237 0.308925 14.5647 0 14.1908 0H12.349H10.5072C10.1332 0 9.87433 0.308925 9.8271 0.680064L9.58929 2.55134C8.80866 2.77081 8.06583 3.08139 7.37354 3.47032L5.88061 2.31466C5.58502 2.08575 5.18388 2.05018 4.9194 2.31466L3.61706 3.617L2.31417 4.91934C2.0497 5.18381 2.08525 5.58552 2.31417 5.8811L3.47038 7.37346C3.08145 8.06575 2.77087 8.80859 2.55141 9.58921C2.55141 9.58921 5.6406 3.53476 12.349 3.73645Z" fill="#39D5FF"/>
<path fill-rule="evenodd" clip-rule="evenodd" d="M9.53872 24.0002L8.77254 19.8837C8.77254 19.8837 2.20526 17.6462 3.8332 10.4878C3.16759 11.6351 2.6342 13.1508 2.55141 15.1088C2.77087 15.89 3.08146 16.6323 3.47039 17.3245L2.31417 18.8175C2.08525 19.113 2.0497 19.5142 2.31417 19.7787L3.61706 21.0815L4.91941 22.3839C5.18388 22.6484 5.58502 22.6128 5.88061 22.3839L7.37354 21.2282C7.77857 21.4555 8.20138 21.6566 8.63866 21.8277L9.53872 24.0002Z" fill="#39D5FF"/>
<path fill-rule="evenodd" clip-rule="evenodd" d="M15.1582 24.0002L15.9244 19.8837C15.9244 19.8837 22.4917 17.6462 20.8637 10.4878C21.5293 11.6351 22.0622 13.1508 22.1455 15.1088C21.9261 15.89 21.6155 16.6323 21.2265 17.3245L22.3828 18.8175C22.6117 19.113 22.6467 19.5142 22.3828 19.7787L21.0799 21.0815L19.7775 22.3839C19.5131 22.6484 19.1119 22.6128 18.8163 22.3839L17.3234 21.2282C16.9184 21.4555 16.4955 21.6566 16.0583 21.8277L15.1582 24.0002Z" fill="#39D5FF"/>
<path fill-rule="evenodd" clip-rule="evenodd" d="M2.54932 15.1084C2.54932 15.1084 2.77212 13.7144 3.57553 12.4198C4.06613 11.6303 4.77286 10.878 5.7774 10.503C5.7774 10.3296 5.7774 10.1257 5.7774 9.85126C5.7774 8.73449 5.90353 8.00552 6.89028 7.43604C6.89028 7.43604 5.11401 8.27723 3.83111 10.4874C3.16548 11.6348 2.63208 13.1505 2.54932 15.1084Z" fill="#102770"/>
<path fill-rule="evenodd" clip-rule="evenodd" d="M22.1459 15.1084C22.1459 15.1084 21.9231 13.7139 21.1197 12.4198C20.6291 11.6303 19.9224 10.878 18.9178 10.503C18.9178 10.3296 18.9178 10.1257 18.9178 9.85071C18.9178 8.73449 18.7917 8.00554 17.8049 7.43604C17.8049 7.43604 19.5812 8.27723 20.8641 10.4874C21.5297 11.6348 22.0631 13.1505 22.1459 15.1084Z" fill="#102770"/>
<path fill-rule="evenodd" clip-rule="evenodd" d="M15.1618 10.0908C15.1618 10.4842 14.8401 10.8059 14.4467 10.8059H10.2563C9.86297 10.8059 9.54126 10.4842 9.54126 10.0908V12.2455C9.54126 12.6388 9.86297 12.9611 10.2563 12.9611H14.4467C14.8401 12.9611 15.1618 12.6388 15.1618 12.2455V10.0908Z" fill="#004790"/>
<defs>
<linearGradient id="paint0_linear_21314_133666" x1="12.3483" y1="5.75446" x2="12.3483" y2="25.2515" gradientUnits="userSpaceOnUse">
<stop stop-color="#003780"/>
<stop offset="1" stop-color="#1C99D7"/>
</linearGradient>
<linearGradient id="paint1_linear_21314_133666" x1="12.3482" y1="17.8165" x2="12.3482" y2="0.00122328" gradientUnits="userSpaceOnUse">
<stop stop-color="#00659C"/>
<stop offset="1" stop-color="#30BDFF"/>
</linearGradient>
</defs>
</svg>
