<svg width="21" height="24" viewBox="0 0 21 24" fill="none" xmlns="http://www.w3.org/2000/svg">
<path d="M12.3976 3.93896V5.25185C14.8223 6.1138 16.5591 8.42709 16.5591 11.1474C16.5591 13.3071 15.4644 15.2105 13.7999 16.3345C13.0189 16.8618 11.9648 16.2807 11.9648 15.3384V13.7492H8.60247V15.3119C8.60247 16.2611 7.53623 16.8393 6.75467 16.3008C5.06234 15.1345 3.97246 13.1569 4.04831 10.9291C4.13664 8.33611 5.83653 6.12307 8.16969 5.26849V3.94918C5.06253 4.86825 2.79443 7.74218 2.79443 11.1474C2.79443 15.2364 6.68487 20.6177 8.86444 23.3116C9.60515 24.2271 11.003 24.2301 11.7473 23.3173C13.9284 20.6421 17.809 15.2994 17.809 11.1474C17.8091 7.72894 15.5235 4.84612 12.3976 3.93896Z" fill="url(#paint0_linear_21314_136150)"/>
<path d="M11.0824 22.0992C10.9719 22.4461 10.6498 22.6818 10.2857 22.6818C9.92154 22.6818 9.59942 22.4461 9.48896 22.0992L8.60449 20.9061V3.66684C8.60449 3.1255 8.66956 2.58945 8.7961 2.07307C8.92264 1.55688 9.11047 1.06037 9.35636 0.598467C9.56878 0.199363 9.92722 0 10.2857 0C10.6441 0 11.0027 0.199552 11.2149 0.598467C11.4608 1.06037 11.6487 1.55688 11.7752 2.07307C11.9018 2.58926 11.9668 3.1255 11.9668 3.66684V20.9061L11.0824 22.0992Z" fill="url(#paint1_linear_21314_136150)"/>
<path d="M11.4985 6.11914L20.0322 12.6391C20.3689 12.8963 20.5666 13.296 20.5666 13.7197V14.3719L11.4985 11.6209V6.11914Z" fill="url(#paint2_linear_21314_136150)"/>
<path d="M9.06803 6.11914L0.534351 12.6391C0.197664 12.8963 0 13.296 0 13.7197V14.3719L9.06803 11.6209V6.11914Z" fill="url(#paint3_linear_21314_136150)"/>
<path d="M1.53485 13.2369C1.85452 13.2369 2.11347 12.9778 2.11347 12.6581V11.604C2.11347 11.2843 1.85433 11.0254 1.53485 11.0254C1.21519 11.0254 0.956055 11.2845 0.956055 11.604V12.6581C0.956244 12.9778 1.21538 13.2369 1.53485 13.2369Z" fill="url(#paint4_linear_21314_136150)"/>
<path d="M19.0347 13.2369C19.3543 13.2369 19.6135 12.9778 19.6135 12.6581V11.604C19.6135 11.2843 19.3543 11.0254 19.0347 11.0254C18.715 11.0254 18.4561 11.2845 18.4561 11.604V12.6581C18.4559 12.9778 18.715 13.2369 19.0347 13.2369Z" fill="url(#paint5_linear_21314_136150)"/>
<path d="M6.48388 9.52286C6.80354 9.52286 7.06249 9.26373 7.06249 8.94426V7.89013C7.06249 7.57047 6.80335 7.31152 6.48388 7.31152C6.16422 7.31152 5.90527 7.57066 5.90527 7.89013V8.94426C5.90527 9.26373 6.16422 9.52286 6.48388 9.52286Z" fill="url(#paint6_linear_21314_136150)"/>
<path d="M14.0947 9.52286C14.4144 9.52286 14.6733 9.26373 14.6733 8.94426V7.89013C14.6733 7.57047 14.4142 7.31152 14.0947 7.31152C13.7751 7.31152 13.5161 7.57066 13.5161 7.89013V8.94426C13.5159 9.26373 13.7751 9.52286 14.0947 9.52286Z" fill="url(#paint7_linear_21314_136150)"/>
<defs>
<linearGradient id="paint0_linear_21314_136150" x1="1.8187" y1="4.16481" x2="20.483" y2="22.8293" gradientUnits="userSpaceOnUse">
<stop stop-color="#E040FB"/>
<stop offset="1" stop-color="#651FFF"/>
</linearGradient>
<linearGradient id="paint1_linear_21314_136150" x1="2.48082" y1="3.5044" x2="21.1452" y2="22.1689" gradientUnits="userSpaceOnUse">
<stop stop-color="#E040FB"/>
<stop offset="1" stop-color="#651FFF"/>
</linearGradient>
<linearGradient id="paint2_linear_21314_136150" x1="4.81277" y1="1.1691" x2="23.4772" y2="19.8336" gradientUnits="userSpaceOnUse">
<stop stop-color="#E040FB"/>
<stop offset="1" stop-color="#651FFF"/>
</linearGradient>
<linearGradient id="paint3_linear_21314_136150" x1="0.136093" y1="5.84769" x2="18.8005" y2="24.5122" gradientUnits="userSpaceOnUse">
<stop stop-color="#E040FB"/>
<stop offset="1" stop-color="#651FFF"/>
</linearGradient>
<linearGradient id="paint4_linear_21314_136150" x1="-2.30558" y1="8.29068" x2="16.3589" y2="26.9553" gradientUnits="userSpaceOnUse">
<stop stop-color="#E040FB"/>
<stop offset="1" stop-color="#651FFF"/>
</linearGradient>
<linearGradient id="paint5_linear_21314_136150" x1="6.44328" y1="-0.460051" x2="25.1078" y2="18.2046" gradientUnits="userSpaceOnUse">
<stop stop-color="#E040FB"/>
<stop offset="1" stop-color="#651FFF"/>
</linearGradient>
<linearGradient id="paint6_linear_21314_136150" x1="2.02732" y1="3.96049" x2="20.6917" y2="22.625" gradientUnits="userSpaceOnUse">
<stop stop-color="#E040FB"/>
<stop offset="1" stop-color="#651FFF"/>
</linearGradient>
<linearGradient id="paint7_linear_21314_136150" x1="5.83374" y1="0.156173" x2="24.4982" y2="18.8207" gradientUnits="userSpaceOnUse">
<stop stop-color="#E040FB"/>
<stop offset="1" stop-color="#651FFF"/>
</linearGradient>
</defs>
</svg>
