<svg width="24" height="20" viewBox="0 0 24 20" fill="none" xmlns="http://www.w3.org/2000/svg">
<path d="M10.4798 4.14307H22.5202C23.536 4.14307 24.2492 5.14374 23.9176 6.1039L22.8349 12.0357C22.6288 12.6326 22.0668 13.033 21.4354 13.033H11.027C10.2282 13.033 9.60583 12.3407 9.6906 11.5465L10.4798 4.14307Z" fill="#DFAF35"/>
<path d="M22.2385 13.7699C21.9539 14.7102 21.0873 15.3539 20.1047 15.3545L10.1882 15.3612C9.2771 15.3612 8.40377 14.9739 7.79225 14.2983C7.18072 13.6229 6.88196 12.7156 6.97215 11.8091L7.76886 3.81373C7.85279 2.97152 7.26653 2.19132 6.43412 2.03745L3.94607 1.57814C3.51389 1.49839 3.22828 1.08355 3.30803 0.65138C3.38779 0.219211 3.80264 -0.0663968 4.23482 0.0133561L6.72287 0.472662C8.36243 0.775181 9.51741 2.31199 9.35226 3.97115L8.56077 11.9132C8.51589 12.3627 8.63259 12.8223 8.92029 13.1705C9.23889 13.5563 9.69258 13.7697 10.1882 13.7697H22.2385V13.7699Z" fill="#76A046"/>
<path d="M11.1944 18.596C11.7974 17.9402 11.7547 16.9198 11.0989 16.3168C10.4431 15.7138 9.42268 15.7565 8.81965 16.4123C8.21663 17.068 8.25938 18.0884 8.91514 18.6915C9.57091 19.2945 10.5914 19.2517 11.1944 18.596Z" fill="#76A046"/>
<path d="M18.7247 18.6469C19.3547 18.017 19.3547 16.9957 18.7247 16.3658C18.0948 15.7359 17.0735 15.7359 16.4436 16.3658C15.8136 16.9957 15.8136 18.017 16.4436 18.6469C17.0735 19.2768 18.0948 19.2768 18.7247 18.6469Z" fill="#76A046"/>
<path d="M13.6875 5.32267L13.4491 7.6472C13.3111 9.0005 14.2206 10.0676 15.5647 10.1294L16.9581 10.1934C16.9692 10.1939 16.98 10.1943 16.9909 10.1947C18.3298 10.2392 19.6512 9.23454 20.0084 7.89377L20.6318 5.55483C20.688 5.34376 20.5654 5.15272 20.3581 5.12767C20.3473 5.12642 20.3366 5.12559 20.3258 5.12538C20.1291 5.11891 19.9343 5.26484 19.8808 5.46506L19.2574 7.80399C19.0061 8.74766 18.0822 9.4573 17.1343 9.42577C17.1256 9.42556 17.1166 9.42514 17.1076 9.42473L15.7142 9.36064C14.7669 9.317 14.1258 8.56499 14.2231 7.61129L14.4615 5.28697C14.4822 5.08571 14.3444 4.92662 14.1469 4.92015C14.136 4.91973 14.1252 4.91994 14.1139 4.92036C13.9003 4.93038 13.7093 5.11035 13.6875 5.32267Z" fill="white"/>
<path d="M5.65871 8.84151L4.00349 8.85278L3.99221 7.19759C3.98804 6.58942 4.47784 6.09316 5.08581 6.08919L6.74103 6.07812L6.75231 7.73331C6.75648 8.34106 6.26689 8.83754 5.65871 8.84151Z" fill="#76A046"/>
<path d="M3.80168 13.0933L2.04269 13.1052L2.03079 11.3463C2.0264 10.7001 2.54669 10.1725 3.19308 10.1681L4.95206 10.1562L4.96396 11.9152C4.96835 12.5616 4.44786 13.0892 3.80168 13.0933Z" fill="#76A046"/>
<path d="M1.18381 10.4043L0.00795241 10.4122L1.82877e-05 9.23636C-0.00290466 8.8044 0.344926 8.45177 0.776895 8.44885L1.95275 8.44092L1.96069 9.61675C1.96361 10.0487 1.61578 10.4013 1.18381 10.4043Z" fill="#76A046"/>
</svg>
