<svg width="24" height="21" viewBox="0 0 24 21" fill="none" xmlns="http://www.w3.org/2000/svg">
<path fill-rule="evenodd" clip-rule="evenodd" d="M19.5 11.25C19.5023 11.3499 19.4845 11.4492 19.4479 11.5421C19.4112 11.6351 19.3564 11.7197 19.2865 11.7912C19.2167 11.8626 19.1333 11.9194 19.0412 11.9582C18.9492 11.9969 18.8503 12.0169 18.7504 12.017C18.6505 12.017 18.5516 11.997 18.4595 11.9583C18.3674 11.9196 18.284 11.8629 18.2141 11.7915C18.1442 11.72 18.0893 11.6354 18.0526 11.5425C18.0159 11.4496 17.9982 11.3503 18.0004 11.2504C18.0047 11.0544 18.0856 10.8679 18.2257 10.7309C18.3658 10.5938 18.554 10.517 18.75 10.517C18.946 10.5169 19.1343 10.5936 19.2744 10.7306C19.4146 10.8676 19.4956 11.054 19.5 11.25ZM15 11.25C15.0023 11.3499 14.9845 11.4492 14.9479 11.5421C14.9112 11.6351 14.8564 11.7197 14.7865 11.7912C14.7167 11.8626 14.6333 11.9194 14.5412 11.9582C14.4492 11.9969 14.3503 12.0169 14.2504 12.017C14.1505 12.017 14.0516 11.997 13.9595 11.9583C13.8674 11.9196 13.784 11.8629 13.7141 11.7915C13.6442 11.72 13.5893 11.6354 13.5526 11.5425C13.5159 11.4496 13.4982 11.3503 13.5004 11.2504C13.5047 11.0544 13.5856 10.8679 13.7257 10.7309C13.8658 10.5938 14.054 10.517 14.25 10.517C14.446 10.5169 14.6343 10.5936 14.7744 10.7306C14.9146 10.8676 14.9956 11.054 15 11.25ZM5.25 5.43713C5.25015 5.18844 5.34908 4.94999 5.52504 4.77424C5.701 4.5985 5.93956 4.49985 6.18825 4.5C6.43694 4.50015 6.67539 4.59908 6.85113 4.77504C7.02688 4.951 7.12552 5.18956 7.12537 5.43825C7.12533 5.56139 7.10102 5.68331 7.05385 5.79706C7.00669 5.91081 6.93757 6.01415 6.85047 6.10118C6.67455 6.27697 6.436 6.37566 6.18731 6.37556C5.93862 6.37546 5.70016 6.27658 5.52438 6.10066C5.3486 5.92473 5.2499 5.68582 5.25 5.43713ZM10.8754 5.43713C10.8729 5.31246 10.8953 5.18855 10.9413 5.07264C10.9873 4.95674 11.0559 4.85117 11.1432 4.76213C11.2305 4.67308 11.3346 4.60234 11.4496 4.55404C11.5646 4.50575 11.688 4.48088 11.8127 4.48088C11.9374 4.48088 12.0608 4.50575 12.1758 4.55404C12.2907 4.60234 12.3949 4.67308 12.4822 4.76213C12.5695 4.85117 12.6381 4.95674 12.6841 5.07264C12.7301 5.18855 12.7525 5.31246 12.75 5.43713C12.7451 5.68247 12.6442 5.91611 12.4689 6.08788C12.2937 6.25966 12.0581 6.35588 11.8127 6.35588C11.5673 6.35588 11.3317 6.25966 11.1564 6.08788C10.9812 5.91611 10.8803 5.68247 10.8754 5.43713ZM21.9772 17.3512L22.3234 18.6499C22.3983 18.9804 22.3423 19.3272 22.1671 19.6173C21.9918 19.9075 21.7111 20.1185 21.3836 20.2061C21.1942 20.2563 20.9959 20.2634 20.8033 20.227C20.6107 20.1906 20.4287 20.1116 20.2706 19.9958C20.2699 19.995 20.2706 19.9972 20.2699 19.9958L19.017 19.1014C18.2038 19.3643 17.3546 19.4988 16.5 19.5C14.664 19.5 12.99 18.8985 11.6891 17.9115C11.5678 17.8487 11.4659 17.7539 11.3948 17.6372C11.3236 17.5206 11.2859 17.3866 11.2856 17.25C11.2856 17.0511 11.3646 16.8603 11.5053 16.7197C11.6459 16.579 11.8367 16.5 12.0356 16.5C12.2111 16.5 12.3701 16.5623 12.4972 16.6635L12.5029 16.6575C13.5645 17.4896 14.9625 18 16.5 18C17.0649 17.9979 17.6272 17.9243 18.1736 17.781C18.2546 17.7671 18.3529 17.7443 18.4939 17.6996C18.7356 17.6238 18.9916 17.6055 19.2416 17.6462C19.4917 17.6869 19.7287 17.7854 19.9339 17.934L20.8132 18.5625L20.55 17.5774C20.4916 17.3461 20.4967 17.1033 20.5647 16.8746C20.6326 16.646 20.761 16.4399 20.9363 16.278C20.9501 16.2656 20.9591 16.2518 20.9708 16.239C21.918 15.3105 22.5 14.0918 22.5 12.75C22.5 9.85125 19.8135 7.5 16.5 7.5C13.1865 7.5 10.5 9.85125 10.5 12.75C10.5 12.9397 10.5127 13.1273 10.5356 13.3118C10.6245 14.5226 9.73913 15.5918 8.5245 15.7155C8.45813 15.7215 8.39363 15.7215 8.32913 15.723C7.49417 15.6672 6.66923 15.509 5.87288 15.252L4.48012 16.2458C4.47937 16.2472 4.48012 16.245 4.47937 16.2458C4.32136 16.3616 4.13942 16.4406 3.9469 16.477C3.75438 16.5134 3.55615 16.5063 3.36675 16.4561C3.03924 16.3686 2.75837 16.1576 2.58308 15.8675C2.40779 15.5773 2.35171 15.2305 2.42663 14.8999L2.784 13.5611C1.07175 12.1275 0 10.113 0 7.87537C0 3.52537 4.029 0 9 0C11.9602 0 14.5781 1.25737 16.218 3.18712C16.3755 3.3255 16.476 3.52425 16.476 3.75C16.476 4.16437 16.1408 4.5 15.726 4.5C15.4897 4.5 15.2824 4.389 15.1444 4.218L15.1406 4.22175C13.7846 2.57737 11.5417 1.5 9 1.5C4.85812 1.5 1.5 4.3545 1.5 7.87537C1.5 9.70162 2.41088 11.3422 3.85988 12.5033C3.86813 12.5119 3.87075 12.5201 3.87975 12.5272C4.04089 12.6541 4.16202 12.8247 4.2286 13.0187C4.29518 13.2126 4.30439 13.4217 4.25513 13.6207L3.9375 14.8125L5.22937 13.8896C5.36065 13.8001 5.51093 13.7423 5.66836 13.7209C5.82578 13.6994 5.98605 13.7148 6.1365 13.7659C6.14925 13.7711 6.16013 13.7681 6.17288 13.7719C6.771 13.98 7.40662 14.127 8.07038 14.1982C8.1994 14.2009 8.32758 14.1768 8.44683 14.1275C8.56608 14.0782 8.67381 14.0046 8.76324 13.9116C8.85266 13.8185 8.92183 13.708 8.96639 13.5868C9.01095 13.4657 9.02992 13.3367 9.02213 13.2079C9.02137 13.1933 9.02588 13.1873 9.0285 13.1771C9.01725 13.0343 9 12.8944 9 12.75C9 9.02213 12.3581 6 16.5 6C20.6419 6 24 9.02213 24 12.75C24 14.5297 23.2279 16.1441 21.9772 17.3512Z" fill="#27AE60"/>
</svg>
