<svg width="16" height="16" viewBox="0 0 16 16" fill="none" xmlns="http://www.w3.org/2000/svg">
<path d="M10.6663 14.0006V12.6673C10.6663 11.96 10.3854 11.2817 9.88529 10.7817C9.3852 10.2816 8.70692 10.0006 7.99967 10.0006H3.99967C3.29243 10.0006 2.61415 10.2816 2.11406 10.7817C1.61396 11.2817 1.33301 11.96 1.33301 12.6673V14.0006M10.6663 2.08594C11.2382 2.23418 11.7446 2.56811 12.1061 3.03531C12.4677 3.50251 12.6638 4.07653 12.6638 4.66727C12.6638 5.25801 12.4677 5.83203 12.1061 6.29923C11.7446 6.76643 11.2382 7.10036 10.6663 7.2486M14.6663 14.0006V12.6673C14.6659 12.0764 14.4692 11.5025 14.1073 11.0355C13.7453 10.5685 13.2384 10.235 12.6663 10.0873" stroke="white" stroke-linecap="round" stroke-linejoin="round"/>
<path d="M5.99967 7.33333C7.47243 7.33333 8.66634 6.13943 8.66634 4.66667C8.66634 3.19391 7.47243 2 5.99967 2C4.52692 2 3.33301 3.19391 3.33301 4.66667C3.33301 6.13943 4.52692 7.33333 5.99967 7.33333Z" stroke="white" stroke-linecap="round" stroke-linejoin="round"/>
</svg>
